{"title":"The.Pom.Pom.Girls.1976.1080p.BluRay.x264-SADPANDA.mkv","uid":15988799,"size":8210588142,"categoryP":"video","categoryS":"hd___movies","magnet":"?xt=urn:btih:d0b7a8937eceb01e9ad7349aadd6fd7ed51fd3d2&amp;dn=The.Pom.Pom.Girls.1976.1080p.BluRay.x264-SADPANDA.mkv&amp;tr=udp%3A%2F%2Ftracker.leechers-paradise.org%3A6969&amp;tr=udp%3A%2F%2Fzer0day.ch%3A1337&amp;tr=udp%3A%2F%2Fopen.demonii.com%3A1337&amp;tr=udp%3A%2F%2Ftracker.coppersurfer.tk%3A6969&amp;tr=udp%3A%2F%2Fexodus.desync.com%3A6969","seeders":2,"leechers":4,"uploader":null,"files":3,"time":1475986950,"description":"The.Pom.Pom.Girls.1976.1080p.BluRay.x264-SADPANDA.mkv\t\r\n\r\nHigh school seniors try to score on and off the field in this raunchy teen comedy set in the 1970s\r\n\r\nVideo\r\nID                                       : 1\r\nFormat                                   : AVC\r\nFormat/Info                              : Advanced Video Codec\r\nFormat profile                           :   \r\nFormat settings, CABAC                   : Yes\r\nFormat settings, ReFrames                : 4 frames\r\nCodec ID                                 : V_MPEG4/ISO/AVC\r\nDuration                                 : 1h 29mn\r\nBit rate                                 : 11.0 Mbps\r\nWidth                                    : 1 920 pixels\r\nHeight                                   : 1 080 pixels\r\nDisplay aspect ratio                     : 16:9\r\nFrame rate mode                          : Constant\r\nFrame rate                               : 23.976 (24000/1001) fps\r\nColor space                              : YUV\r\nChroma subsampling                       : 4:2:0\r\nBit depth                                : 8 bits\r\nScan type                                : Progressive\r\nBits/(Pixel*Frame)                       : 0.221\r\nStream size                              : 6.86 GiB (90%)\r\nWriting library                          : x264 core 148 r2721 72d53ab\r\nEncoding settings                        : cabac=1 / ref=4 / deblock=1:-3:-3 / analyse=0x3:0x113 / me=umh / subme=8 / psy=1 / psy_rd=1.00:0.25 / mixed_ref=1 / me_range=24 / chroma_me=1 / trellis=2 / 8x8dct=1 / cqm=0 / deadzone=21,11 / fast_pskip=1 / chroma_qp_offset=-4 / threads=24 / lookahead_threads=4 / sliced_threads=0 / nr=0 / decimate=1 / interlaced=0 / bluray_compat=0 / constrained_intra=0 / bframes=3 / b_pyramid=2 / b_adapt=1 / b_bias=0 / direct=3 / weightb=1 / open_gop=0 / weightp=2 / keyint=240 / keyint_min=24 / scenecut=40 / intra_refresh=0 / rc_lookahead=50 / rc=2pass / mbtree=1 / bitrate=10998 / ratetol=1.0 / qcomp=0.60 / qpmin=0 / qpmax=69 / qpstep=4 / cplxblur=20.0 / qblur=0.5 / ip_ratio=1.40 / aq=1:0.75\r\nDefault                                  : Yes\r\nForced                                   : No\r\n\r\nAudio\r\nID                                       : 2\r\nFormat                                   : FLAC\r\nFormat/Info                              : Free Lossless Audio Codec\r\nCodec ID                                 : A_FLAC\r\nDuration                                 : 1h 29mn\r\nBit rate mode                            : Variable\r\nBit rate                                 : 1 255 Kbps\r\nChannel(s)                               : 2 channels\r\nChannel positions                        : Front: L R\r\nSampling rate                            : 48.0 KHz\r\nFrame rate                               : 11.719 fps (4096 spf)\r\nBit depth                                : 24 bits\r\nStream size                              : 802 MiB (10%)\r\nWriting library                          : libFLAC 1.2.1 (UTC \r\nLanguage                                 : English","torrent":{"xt":"urn:btih:d0b7a8937eceb01e9ad7349aadd6fd7ed51fd3d2","amp;dn":"The.Pom.Pom.Girls.1976.1080p.BluRay.x264-SADPANDA.mkv","amp;tr":["udp%3A%2F%2Ftracker.leechers-paradise.org%3A6969","udp%3A%2F%2Fzer0day.ch%3A1337","udp%3A%2F%2Fopen.demonii.com%3A1337","udp%3A%2F%2Ftracker.coppersurfer.tk%3A6969","udp%3A%2F%2Fexodus.desync.com%3A6969"],"infoHash":"d0b7a8937eceb01e9ad7349aadd6fd7ed51fd3d2","infoHashBuffer":{"type":"Buffer","data":[208,183,168,147,126,206,176,30,154,215,52,154,173,214,253,126,213,31,211,210]},"announce":[],"urlList":[]}}